<svg width="799" height="533" viewBox="0 0 799 533" fill="none" xmlns="http://www.w3.org/2000/svg">
<rect width="799" height="533" fill="#1E1E1E"/>
<path d="M389 241C389 230.806 387.04 221.151 384.778 211.222C381.961 198.859 378.697 186.574 376.333 174.111C375.666 170.595 374.438 165.816 375.111 162.111C375.961 157.434 384.902 158.875 387.889 159.889C394.298 162.066 400.85 167.076 403.444 173.444C405.169 177.677 407.672 180.303 406.778 185.222C405.459 192.478 399.161 198.744 394.778 204.222C387.023 213.916 379.938 224.319 371.778 233.667C363.811 242.792 353.893 248.506 344.556 255.889C343.641 256.612 338.629 260.525 339.222 260.111C349.131 253.205 358.482 245.617 368.111 238.333C390.511 221.388 413.277 207.916 440.333 200.111C455.446 195.752 468.428 194.69 484.222 195.111C495.953 195.424 508.686 196.357 520.111 199.444C523.155 200.267 527.253 204.749 522.556 206.556C514.877 209.509 505.9 209.127 497.889 210.111C481.74 212.094 465.569 215.105 450.889 222.444C439.225 228.276 430.104 237.491 420.111 245.667C412.232 252.113 403.686 257.69 395.889 264.222C380.787 276.876 369.568 293.962 363.333 312.667C360.401 321.464 360.145 331.431 363 340.333C364.936 346.37 368.976 347 374.556 347C378.305 347 381.524 347.121 385.111 346C391.184 344.102 392.086 342.329 393.889 335.889C395.487 330.18 396.865 323.378 397 317.444C397.202 308.554 392.269 300.676 388.111 293C382.253 282.186 372.269 275.593 362.222 269.111C349.891 261.156 335.674 262.001 321.444 260C307.501 258.039 295.953 253.202 285.889 243C273.744 230.688 263.723 209.343 262.333 192.111C261.713 184.418 262.005 170.218 268.111 164.111C272.018 160.205 281.074 159.274 286.222 158.111C335.505 146.983 333.295 214.953 332.556 245.444C331.919 271.71 330.301 298.287 325.222 324.111C319.597 352.711 310.284 380.706 302.556 408.778C291.245 449.862 279.97 491.08 265 531" stroke="white" stroke-width="3" stroke-linecap="round"/>
<path d="M255 367C235.451 384.92 214.02 400.734 188.556 409.222C158.683 419.18 122.316 421.272 92.5556 409.667C36.078 387.643 -22.1611 327.659 11.8889 264.111C18.4533 251.86 33.6983 232.676 42.5556 222.778C68.9507 193.282 99.1104 167.163 130.889 143.667C200.586 92.1344 279.569 48.1971 363.889 26.1111C398.085 17.1541 449.45 8.98319 483.889 6.1111C510.305 3.90805 536.827 2.861 563.333 2.55555C614.985 1.96033 694.714 0.283371 744.444 22C764.344 30.6899 787.023 43.442 794.333 63.8889C810.52 109.166 754.638 178.103 733 203.222C689.981 253.164 633.728 293.048 576.333 324.556C548.46 339.857 518.907 355.668 487.667 363C483.643 363.944 479.551 364.68 475.667 366.111C469.568 368.358 463.607 370.392 458.111 373.889C454.949 375.901 449.772 375.669 446.111 377C442.008 378.492 439.449 379 435 379" stroke="white" stroke-width="3" stroke-linecap="round"/>
<path d="M457 91C463.492 91.7213 471.842 98.356 477.444 101.444C482.788 104.39 496.952 110.156 497.556 118C497.848 121.797 486.398 127.995 484.444 129.444C474.384 136.909 464.249 143.964 453.667 150.667C445.292 155.97 438.865 163.101 431 169" stroke="white" stroke-width="3" stroke-linecap="round"/>
<path d="M491 141H493" stroke="white" stroke-width="3" stroke-linecap="round"/>
<path d="M215 295C218.046 294.619 221.429 287.857 223.333 285.889C229.486 279.531 237.13 275.609 244.556 271C247.682 269.06 250.43 269 254 269C257.713 269 257 272.62 257 275.444C257 292.651 252.966 304.844 245 320.111C241.676 326.483 236.942 332.648 231.111 336.889C228.316 338.922 227.525 341.737 225 343" stroke="white" stroke-width="3" stroke-linecap="round"/>
<path d="M623 151C622.612 154.494 619.268 156.606 617 159C610.662 165.69 606.182 175.198 602.333 183.444C600.953 186.401 624.265 184.01 627.444 183.444C630.938 182.823 640.28 181.132 642.556 185C645.752 190.434 645.269 196.911 644.889 203C642.518 240.94 604.66 260.968 577.889 281C568.422 288.083 559.557 296.177 549 301.667C540.623 306.023 531.5 308.867 523 313C502.416 323.009 481.951 333.172 461.222 342.889C446.658 349.716 431.855 355.17 417 361.222C408.786 364.569 401.277 369.323 393.111 372.778C383.55 376.823 374.011 380.687 364.556 385C328.554 401.422 291.486 417.838 253.111 427.889C239.975 431.329 227.255 435.343 214.444 439.889C211.048 441.094 204.493 442.015 203 445" stroke="white" stroke-width="3" stroke-linecap="round"/>
</svg>
